<svg width="14" height="14" viewBox="0 0 14 14" fill="none" xmlns="http://www.w3.org/2000/svg">
<path d="M6.99893 8.90803C8.0533 8.90803 8.90803 8.0533 8.90803 6.99893C8.90803 5.94457 8.0533 5.08984 6.99893 5.08984C5.94457 5.08984 5.08984 5.94457 5.08984 6.99893C5.08984 8.0533 5.94457 8.90803 6.99893 8.90803Z" stroke="#6D6D71" stroke-width="1.12"/>
<path d="M8.12294 0.733446C7.88939 0.636719 7.59284 0.636719 6.99975 0.636719C6.40666 0.636719 6.11012 0.636719 5.87657 0.733446C5.72205 0.797409 5.58165 0.891198 5.4634 1.00945C5.34514 1.12771 5.25135 1.26811 5.18739 1.42263C5.12885 1.56454 5.1053 1.73063 5.09639 1.97181C5.09225 2.14613 5.04396 2.31655 4.95604 2.46713C4.86811 2.6177 4.74344 2.74352 4.59366 2.83281C4.44145 2.91794 4.27013 2.96306 4.09573 2.96395C3.92133 2.96484 3.74956 2.92147 3.59648 2.8379C3.38266 2.72463 3.22803 2.66226 3.07466 2.6419C2.74014 2.59791 2.40184 2.68855 2.13412 2.8939C1.9343 3.04854 1.78539 3.30499 1.48884 3.81854C1.1923 4.33208 1.04339 4.58854 1.01094 4.8399C0.989067 5.00564 1.00007 5.17407 1.04331 5.33556C1.08654 5.49705 1.16118 5.64844 1.26294 5.78108C1.35712 5.90326 1.48884 6.00572 1.69312 6.13426C1.99412 6.32326 2.18757 6.64526 2.18757 7.00036C2.18757 7.35545 1.99412 7.67745 1.69312 7.86581C1.48884 7.99499 1.35648 8.09745 1.26294 8.21963C1.16118 8.35227 1.08654 8.50366 1.04331 8.66515C1.00007 8.82664 0.989067 8.99507 1.01094 9.16081C1.04403 9.41154 1.1923 9.66863 1.48821 10.1822C1.78539 10.6957 1.93366 10.9522 2.13412 11.1068C2.26676 11.2086 2.41815 11.2832 2.57964 11.3264C2.74113 11.3697 2.90956 11.3807 3.0753 11.3588C3.22803 11.3384 3.38266 11.2761 3.59648 11.1628C3.74956 11.0792 3.92133 11.0359 4.09573 11.0368C4.27013 11.0377 4.44145 11.0828 4.59366 11.1679C4.90103 11.3461 5.08366 11.6738 5.09639 12.0289C5.1053 12.2707 5.12821 12.4362 5.18739 12.5781C5.25135 12.7326 5.34514 12.873 5.4634 12.9913C5.58165 13.1095 5.72205 13.2033 5.87657 13.2673C6.11012 13.364 6.40666 13.364 6.99975 13.364C7.59284 13.364 7.88939 13.364 8.12294 13.2673C8.27746 13.2033 8.41786 13.1095 8.53611 12.9913C8.65437 12.873 8.74815 12.7326 8.81212 12.5781C8.87066 12.4362 8.89421 12.2707 8.90312 12.0289C8.91584 11.6738 9.09848 11.3454 9.40584 11.1679C9.55806 11.0828 9.72938 11.0377 9.90378 11.0368C10.0782 11.0359 10.25 11.0792 10.403 11.1628C10.6168 11.2761 10.7715 11.3384 10.9242 11.3588C11.09 11.3807 11.2584 11.3697 11.4199 11.3264C11.5814 11.2832 11.7327 11.2086 11.8654 11.1068C12.0658 10.9528 12.2141 10.6957 12.5107 10.1822C12.8072 9.66863 12.9561 9.41217 12.9886 9.16081C13.0104 8.99507 12.9994 8.82664 12.9562 8.66515C12.913 8.50366 12.8383 8.35227 12.7366 8.21963C12.6424 8.09745 12.5107 7.99499 12.3064 7.86645C12.1574 7.7757 12.0339 7.64864 11.9475 7.49717C11.861 7.3457 11.8144 7.17476 11.8119 7.00036C11.8119 6.64526 12.0054 6.32326 12.3064 6.1349C12.5107 6.00572 12.643 5.90326 12.7366 5.78108C12.8383 5.64844 12.913 5.49705 12.9562 5.33556C12.9994 5.17407 13.0104 5.00564 12.9886 4.8399C12.9555 4.58917 12.8072 4.33208 12.5113 3.81854C12.2141 3.30499 12.0658 3.04854 11.8654 2.8939C11.7327 2.79214 11.5814 2.71751 11.4199 2.67427C11.2584 2.63103 11.09 2.62003 10.9242 2.6419C10.7715 2.66226 10.6168 2.72463 10.4024 2.8379C10.2494 2.92136 10.0777 2.96466 9.90346 2.96377C9.72919 2.96288 9.55798 2.91782 9.40584 2.83281C9.25607 2.74352 9.13139 2.6177 9.04347 2.46713C8.95555 2.31655 8.90726 2.14613 8.90312 1.97181C8.89421 1.72999 8.8713 1.56454 8.81212 1.42263C8.74815 1.26811 8.65437 1.12771 8.53611 1.00945C8.41786 0.891198 8.27746 0.797409 8.12294 0.733446Z" stroke="#6D6D71" stroke-width="1.12"/>
</svg>
