<svg width="32" height="32" viewBox="0 0 32 32" fill="none" xmlns="http://www.w3.org/2000/svg">
<path d="M8.64547 10.9698C9.60817 10.9698 10.5314 10.5873 11.2122 9.90644C11.8929 9.22561 12.2753 8.30221 12.2753 7.33937C12.2753 6.37653 11.8929 5.45313 11.2122 4.7723C10.5314 4.09147 9.60817 3.70898 8.64547 3.70898C7.68278 3.70898 6.75951 4.09147 6.07878 4.7723C5.39805 5.45313 5.01563 6.37653 5.01562 7.33937C5.01563 8.30221 5.39805 9.22561 6.07878 9.90644C6.75951 10.5873 7.68278 10.9698 8.64547 10.9698ZM8.64547 10.9698V13.28C8.64547 13.9802 8.9236 14.6518 9.41868 15.147C9.91375 15.6421 10.5852 15.9203 11.2854 15.9203H15.2452M15.2452 15.9203H20.525C21.2251 15.9203 21.8966 15.6421 22.3917 15.147C22.8867 14.6518 23.1649 13.9802 23.1649 13.28V10.9698M15.2452 15.9203V20.8708M23.1649 10.9698C24.1276 10.9698 25.0508 10.5873 25.7316 9.90644C26.4123 9.22561 26.7947 8.30221 26.7947 7.33937C26.7947 6.37653 26.4123 5.45313 25.7316 4.7723C25.0508 4.09147 24.1276 3.70898 23.1649 3.70898C22.2022 3.70898 21.2789 4.09147 20.5982 4.7723C19.9174 5.45313 19.535 6.37653 19.535 7.33937C19.535 8.30221 19.9174 9.22561 20.5982 9.90644C21.2789 10.5873 22.2022 10.9698 23.1649 10.9698ZM15.2452 20.8708C14.2825 20.8708 13.3592 21.2533 12.6785 21.9341C11.9978 22.615 11.6153 23.5384 11.6153 24.5012C11.6153 25.464 11.9978 26.3874 12.6785 27.0683C13.3592 27.7491 14.2825 28.1316 15.2452 28.1316C16.2079 28.1316 17.1312 27.7491 17.8119 27.0683C18.4926 26.3874 18.875 25.464 18.875 24.5012C18.875 23.5384 18.4926 22.615 17.8119 21.9341C17.1312 21.2533 16.2079 20.8708 15.2452 20.8708Z" stroke="#6366F1" stroke-width="2.28807" stroke-linecap="round" stroke-linejoin="round"/>
</svg>
