<svg width="33" height="32" viewBox="0 0 33 32" fill="none" xmlns="http://www.w3.org/2000/svg">
<path d="M21.6224 16.6792L21.241 16.459C21.2608 16.2793 21.2956 16.104 21.2956 15.9191C21.2956 15.7343 21.2608 15.5589 21.241 15.3793L21.6224 15.1591C21.8496 15.0277 22.0159 14.811 22.0835 14.5578C22.1516 14.3044 22.1159 14.0337 21.9849 13.8065L20.9949 12.0912C20.7208 11.6184 20.1161 11.454 19.6424 11.7286L19.268 11.9448C18.9746 11.7283 18.6634 11.5365 18.3257 11.3883V10.9686C18.3257 10.4214 17.8824 9.97852 17.3357 9.97852H15.3558C14.8092 9.97852 14.3659 10.4214 14.3659 10.9686V11.3882C14.0282 11.5364 13.7169 11.7282 13.4235 11.9447L13.0491 11.7285C12.5739 11.454 11.9698 11.6183 11.6966 12.0911L10.7067 13.8064C10.5757 14.0336 10.5399 14.3043 10.6081 14.5577C10.6758 14.811 10.842 15.0276 11.0692 15.159L11.4505 15.3792C11.4307 15.5589 11.396 15.7343 11.396 15.9191C11.396 16.104 11.4307 16.2793 11.4505 16.459L11.0692 16.6792C10.842 16.8106 10.6757 17.0273 10.6081 17.2805C10.54 17.5339 10.5757 17.8046 10.7067 18.0318L11.6966 19.7471C11.8803 20.0642 12.2129 20.2421 12.5551 20.2421C12.7228 20.2421 12.893 20.1996 13.0491 20.1097L13.4235 19.8935C13.7169 20.11 14.0282 20.3017 14.3659 20.45V20.8697C14.3659 21.4169 14.8092 21.8598 15.3558 21.8598H17.3357C17.8824 21.8598 18.3257 21.4169 18.3257 20.8697V20.4501C18.6634 20.3018 18.9746 20.1101 19.268 19.8936L19.6424 20.1098C19.7986 20.1997 19.9687 20.2422 20.1364 20.2422C20.4787 20.2422 20.8112 20.0643 20.9949 19.7472L21.9849 18.0319C22.1159 17.8047 22.1517 17.534 22.0835 17.2806C22.0158 17.0272 21.8496 16.8106 21.6224 16.6792ZM16.3458 17.8994C15.2523 17.8994 14.3659 17.0128 14.3659 15.9191C14.3659 14.8255 15.2523 13.9389 16.3458 13.9389C17.4393 13.9389 18.3257 14.8255 18.3257 15.9191C18.3257 17.0128 17.4393 17.8994 16.3458 17.8994Z" fill="#6366F1"/>
<path d="M9.41799 2.05469H3.47824C2.93158 2.05469 2.48828 2.49756 2.48828 3.04479V10.9656C2.48828 11.5129 2.93158 11.9557 3.47824 11.9557H9.41799C9.96465 11.9557 10.408 11.5129 10.408 10.9656V3.04479C10.408 2.49756 9.96465 2.05469 9.41799 2.05469ZM7.43808 10.9656H5.45816C4.9115 10.9656 4.4682 10.5228 4.4682 9.97553C4.4682 9.4283 4.9115 8.98542 5.45816 8.98542H7.43808C7.98473 8.98542 8.42803 9.4283 8.42803 9.97553C8.42803 10.5228 7.98473 10.9656 7.43808 10.9656ZM7.43808 7.99532H5.45816C4.9115 7.99532 4.4682 7.55244 4.4682 7.00521C4.4682 6.45798 4.9115 6.01511 5.45816 6.01511H7.43808C7.98473 6.01511 8.42803 6.45798 8.42803 7.00521C8.42803 7.55244 7.98473 7.99532 7.43808 7.99532ZM7.43808 5.025H5.45816C4.9115 5.025 4.4682 4.58213 4.4682 4.0349C4.4682 3.48767 4.9115 3.04479 5.45816 3.04479H7.43808C7.98473 3.04479 8.42803 3.48767 8.42803 4.0349C8.42803 4.58213 7.98473 5.025 7.43808 5.025Z" fill="#6366F1"/>
<path d="M18.0381 6.3029C17.8448 6.10956 17.5915 6.01285 17.3382 6.01285V5.95097C17.3382 4.34714 16.0335 3.04297 14.4302 3.04297H12.3884C11.8417 3.04297 11.3984 3.48578 11.3984 4.03293C11.3984 4.58008 11.8417 5.02289 12.3884 5.02289H14.4302C14.9421 5.02289 15.3583 5.43956 15.3583 5.95097V6.01285C15.1049 6.01285 14.8517 6.10956 14.6584 6.3029C14.2717 6.68958 14.2717 7.31603 14.6584 7.7028L15.6483 8.69276C15.8417 8.886 16.0949 8.98272 16.3482 8.98272C16.6016 8.98272 16.8548 8.886 17.0481 8.69266L18.0381 7.7027C18.4249 7.31603 18.4249 6.68958 18.0381 6.3029Z" fill="#6366F1"/>
<path d="M21.0091 27.0956L20.0191 26.1056C19.6324 25.719 19.006 25.719 18.6192 26.1056C18.426 26.299 18.3293 26.5522 18.3293 26.8055H18.2674C17.7555 26.8055 17.3393 26.3889 17.3393 25.8775V23.8357C17.3393 23.2885 16.896 22.8457 16.3493 22.8457C15.8027 22.8457 15.3594 23.2885 15.3594 23.8357V25.8775C15.3594 27.4813 16.664 28.7855 18.2674 28.7855H18.3293C18.3293 29.0388 18.426 29.292 18.6193 29.4854C18.8126 29.6787 19.0659 29.7754 19.3192 29.7754C19.5725 29.7754 19.8258 29.6787 20.0191 29.4854L21.0091 28.4954C21.3958 28.1087 21.3958 27.4823 21.0091 27.0956Z" fill="#6366F1"/>
<path d="M26.245 21.8555C24.3378 21.8555 22.2852 22.1653 22.2852 22.8454C22.2852 23.5255 24.3378 23.8354 26.245 23.8354C28.1521 23.8354 30.2048 23.5255 30.2048 22.8454C30.2048 22.1653 28.1521 21.8555 26.245 21.8555Z" fill="#6366F1"/>
<path d="M26.245 24.8266C24.4113 24.8266 23.1015 24.6112 22.2852 24.1992V25.8165C22.2852 26.4966 24.3378 26.8065 26.245 26.8065C28.1521 26.8065 30.2048 26.4966 30.2048 25.8165V24.1992C29.3885 24.6112 28.0787 24.8266 26.245 24.8266Z" fill="#6366F1"/>
<path d="M26.245 27.8012C24.4113 27.8012 23.1015 27.5858 22.2852 27.1738V28.7911C22.2852 29.4712 24.3378 29.7811 26.245 29.7811C28.1521 29.7811 30.2048 29.4712 30.2048 28.7911V27.1738C29.3885 27.5858 28.0787 27.8012 26.245 27.8012Z" fill="#6366F1"/>
</svg>
