<svg width="33" height="32" viewBox="0 0 33 32" fill="none" xmlns="http://www.w3.org/2000/svg">
<path d="M16.7229 10.6396L10.1232 17.2403L11.9711 19.0885L15.4029 15.6891V29.1216H18.0428V15.6891L21.4747 19.0885L23.3226 17.2403L16.7229 10.6396ZM5.70135 23.1809C4.99738 22.1028 4.4584 20.9477 4.08441 19.7156C3.71043 18.4834 3.52344 17.2183 3.52344 15.9202C3.52344 14.094 3.87014 12.3778 4.56355 10.7716C5.25697 9.16544 6.19721 7.76829 7.38428 6.58016C8.57135 5.39204 9.96829 4.45166 11.5751 3.75902C13.1819 3.06639 14.8978 2.71963 16.7229 2.71875C18.5479 2.71787 20.2639 3.06463 21.8707 3.75902C23.4775 4.45342 24.8744 5.3938 26.0615 6.58016C27.2486 7.76653 28.1893 9.16368 28.8835 10.7716C29.5778 12.3795 29.9241 14.0957 29.9223 15.9202C29.9223 17.2183 29.7353 18.4834 29.3614 19.7156C28.9874 20.9477 28.4484 22.1028 27.7444 23.1809L25.8305 21.2667C26.3145 20.4526 26.6775 19.5945 26.9195 18.6924C27.1615 17.7904 27.2824 16.8663 27.2824 15.9202C27.2824 12.9718 26.2595 10.4746 24.2136 8.42836C22.1677 6.38214 19.6708 5.35903 16.7229 5.35903C13.775 5.35903 11.2781 6.38214 9.2322 8.42836C7.18628 10.4746 6.16333 12.9718 6.16333 15.9202C6.16333 16.8663 6.28432 17.7904 6.52631 18.6924C6.7683 19.5945 7.13129 20.4526 7.61527 21.2667L5.70135 23.1809Z" fill="#6366F1"/>
</svg>
