<svg width="33" height="32" viewBox="0 0 33 32" fill="none" xmlns="http://www.w3.org/2000/svg">
<path fill-rule="evenodd" clip-rule="evenodd" d="M8.531 20.4016C5.25895 20.4016 2.60156 17.7439 2.60156 14.4713C2.60156 11.1988 5.25895 8.54102 8.531 8.54102H14.4813C15.0279 8.54102 15.4714 8.98453 15.4714 9.53123V19.4114C15.4714 19.9581 15.0279 20.4016 14.4813 20.4016H8.531ZM8.531 18.4212H13.4912V10.5214H8.531C6.3511 10.5214 4.58172 12.2911 4.58172 14.4713C4.58172 16.6516 6.3511 18.4212 8.531 18.4212Z" fill="#6366F1"/>
<path fill-rule="evenodd" clip-rule="evenodd" d="M28.338 17.4632C28.338 16.9176 28.7815 16.4729 29.3276 16.4729C29.8738 16.4729 30.3173 16.9176 30.3173 17.4632V22.7818C30.3173 23.782 29.8142 24.7145 28.9792 25.2634C28.1441 25.8123 27.0898 25.9049 26.1712 25.5097L14.0864 20.2953C13.7227 20.1399 13.4883 19.7811 13.4883 19.386L13.4883 9.52419C13.4883 9.13236 13.7202 8.7769 14.0788 8.61819L26.1496 3.29796C27.0683 2.89456 28.1289 2.98051 28.9703 3.5294C29.8104 4.07663 30.3173 5.01239 30.3173 6.01759V13.5185C30.3173 14.0657 29.8738 14.5088 29.3276 14.5088C28.7815 14.5088 28.338 14.0657 28.338 13.5185V6.01759C28.338 5.68197 28.1682 5.37113 27.8881 5.18762C27.6081 5.0041 27.2546 4.97601 26.9479 5.11158L15.4676 10.1706V18.7346L26.9555 23.6911C27.2622 23.8234 27.6132 23.7919 27.8919 23.6084C28.1694 23.4266 28.338 23.1158 28.338 22.7818V17.4632Z" fill="#6366F1"/>
<path fill-rule="evenodd" clip-rule="evenodd" d="M9.53238 26.3744C9.79487 26.3744 10.0472 26.2708 10.2327 26.0849C10.4182 25.8989 10.5223 25.6475 10.5223 25.3838V19.445C10.5223 18.8994 10.9658 18.4544 11.5123 18.4544C12.0588 18.4544 12.5023 18.8994 12.5023 19.445V25.3838C12.5023 26.1717 12.1889 26.9276 11.6322 27.4854C11.0756 28.0416 10.3198 28.3556 9.53238 28.3556C8.74494 28.3556 7.98919 28.0416 7.43255 27.4854C6.87591 26.9276 6.5625 26.1717 6.5625 25.3838V19.3871C6.5625 18.84 7.006 18.3965 7.55246 18.3965C8.09892 18.3965 8.54242 18.84 8.54242 19.3871V25.3838C8.54242 25.6475 8.64652 25.8989 8.83207 26.0849C9.01762 26.2708 9.2699 26.3744 9.53238 26.3744Z" fill="#6366F1"/>
</svg>
