<svg width="32" height="32" viewBox="0 0 32 32" fill="none" xmlns="http://www.w3.org/2000/svg">
<path d="M16.1565 29.1216L9.55676 22.5209L11.4047 20.6727L14.8365 24.072V10.6396H17.4764V24.072L20.9083 20.6727L22.7562 22.5209L16.1565 29.1216ZM5.13494 23.1809C4.43097 22.1028 3.89199 20.9477 3.51801 19.7156C3.14402 18.4834 2.95703 17.2183 2.95703 15.9202C2.95703 14.094 3.30374 12.3778 3.99715 10.7716C4.69056 9.16544 5.6308 7.76829 6.81787 6.58016C8.00494 5.39204 9.40188 4.45166 11.0087 3.75902C12.6155 3.06639 14.3314 2.71963 16.1565 2.71875C17.9815 2.71787 19.6975 3.06463 21.3043 3.75902C22.9111 4.45342 24.308 5.3938 25.4951 6.58016C26.6822 7.76653 27.6228 9.16368 28.3171 10.7716C29.0114 12.3795 29.3577 14.0957 29.3559 15.9202C29.3559 17.2183 29.1689 18.4834 28.795 19.7156C28.421 20.9477 27.882 22.1028 27.178 23.1809L25.2641 21.2667C25.7481 20.4526 26.1111 19.5945 26.3531 18.6924C26.595 17.7904 26.716 16.8663 26.716 15.9202C26.716 12.9718 25.6931 10.4746 23.6472 8.42836C21.6013 6.38214 19.1044 5.35903 16.1565 5.35903C13.2086 5.35903 10.7117 6.38214 8.66579 8.42836C6.61988 10.4746 5.59692 12.9718 5.59692 15.9202C5.59692 16.8663 5.71792 17.7904 5.95991 18.6924C6.2019 19.5945 6.56488 20.4526 7.04886 21.2667L5.13494 23.1809Z" fill="#6366F1"/>
</svg>
