<svg width="33" height="32" viewBox="0 0 33 32" fill="none" xmlns="http://www.w3.org/2000/svg">
<path d="M15.6506 7.59766C15.3082 7.59766 14.9797 7.73372 14.7376 7.97591C14.4954 8.2181 14.3594 8.54659 14.3594 8.8891V16.6377C14.3594 16.9803 14.4954 17.3087 14.7376 17.5509C14.9797 17.7931 15.3082 17.9292 15.6506 17.9292H21.4613C21.8037 17.9292 22.1321 17.7931 22.3743 17.5509C22.6165 17.3087 22.7525 16.9803 22.7525 16.6377C22.7525 16.2952 22.6165 15.9668 22.3743 15.7246C22.1321 15.4824 21.8037 15.3463 21.4613 15.3463H16.9419V8.8891C16.9419 8.54659 16.8058 8.2181 16.5637 7.97591C16.3215 7.73372 15.9931 7.59766 15.6506 7.59766Z" fill="#6366F1"/>
<path d="M26.3414 5.94889C23.6754 3.28881 20.0633 1.79492 16.2975 1.79492C12.5317 1.79492 8.91964 3.28881 6.25366 5.94889C6.02557 6.19371 5.9014 6.51751 5.9073 6.85208C5.91321 7.18665 6.04872 7.50587 6.2853 7.74248C6.52188 7.9791 6.84105 8.11463 7.17557 8.12054C7.5101 8.12644 7.83385 8.00225 8.07863 7.77413C9.63778 6.21065 11.61 5.12372 13.7644 4.64057C15.9187 4.15742 18.1662 4.29806 20.2435 5.04601C22.3209 5.79396 24.1422 7.11827 25.4944 8.86393C26.8465 10.6096 27.6735 12.7044 27.8785 14.903C28.0835 17.1017 27.6581 19.3133 26.652 21.2789C25.6459 23.2445 24.1007 24.8828 22.1975 26.002C20.2942 27.1212 18.1115 27.675 15.905 27.5986C13.6984 27.5222 11.5593 26.8187 9.73797 25.5705L10.8915 25.1862C11.2164 25.0778 11.4849 24.8448 11.638 24.5384C11.7911 24.232 11.8163 23.8774 11.7079 23.5524C11.5995 23.2275 11.3666 22.9589 11.0602 22.8058C10.7539 22.6527 10.3993 22.6275 10.0744 22.7359L6.72505 23.8521C6.43092 23.9505 6.18207 24.1516 6.024 24.4186C5.86593 24.6855 5.80921 25.0004 5.86422 25.3057L6.55289 29.137C6.61698 29.4709 6.8101 29.766 7.09035 29.9584C7.37061 30.1508 7.7154 30.225 8.04997 30.1648C8.38453 30.1046 8.68188 29.9149 8.87753 29.6369C9.07318 29.3589 9.15135 29.0149 9.0951 28.6796L9.00213 28.1631C11.9728 29.9461 15.4929 30.581 18.8992 29.948C22.3055 29.3151 25.3627 27.458 27.4947 24.7267C29.6268 21.9955 30.6865 18.5786 30.4741 15.1201C30.2617 11.6615 28.7919 8.40006 26.3417 5.95027L26.3414 5.94889Z" fill="#6366F1"/>
<path d="M5.23759 9.19703C5.08516 9.12267 4.91957 9.07909 4.75028 9.06879C4.58099 9.05849 4.41134 9.08166 4.25101 9.13699C4.09069 9.19232 3.94285 9.27871 3.81595 9.39123C3.68905 9.50375 3.58557 9.64018 3.51145 9.79272C3.40677 10.0069 3.30841 10.2231 3.21636 10.4414C3.14542 10.5982 3.10654 10.7676 3.10201 10.9396C3.09748 11.1116 3.12738 11.2828 3.18996 11.4431C3.25254 11.6034 3.34654 11.7495 3.46642 11.873C3.58631 11.9964 3.72966 12.0947 3.88805 12.1619C4.04645 12.2291 4.21669 12.264 4.38876 12.2645C4.56083 12.265 4.73127 12.2311 4.89005 12.1648C5.04882 12.0984 5.19274 12.001 5.31333 11.8783C5.43392 11.7555 5.52876 11.6099 5.59226 11.45C5.66801 11.273 5.74835 11.0974 5.83329 10.9232C5.90756 10.7707 5.95106 10.6051 5.96131 10.4359C5.97157 10.2666 5.94837 10.097 5.89306 9.93668C5.83774 9.77639 5.75138 9.62856 5.63891 9.50165C5.52644 9.37473 5.39007 9.27122 5.23759 9.19703Z" fill="#6366F1"/>
<path d="M3.38543 16.9666C3.72205 16.9665 4.04532 16.8349 4.28629 16.5999C4.52726 16.3648 4.66686 16.0449 4.6753 15.7084C4.6815 15.4646 4.69562 15.2208 4.71628 14.9771C4.73095 14.8081 4.71221 14.638 4.66112 14.4763C4.61004 14.3147 4.52761 14.1646 4.41855 14.0348C4.30948 13.905 4.17592 13.7979 4.02548 13.7197C3.87504 13.6415 3.71067 13.5937 3.54175 13.5791C3.37284 13.5644 3.20269 13.5831 3.04102 13.6342C2.87935 13.6853 2.72932 13.7677 2.59951 13.8768C2.46969 13.9859 2.36263 14.1194 2.28443 14.2699C2.20623 14.4203 2.15843 14.5847 2.14376 14.7536C2.11805 15.049 2.10152 15.3449 2.09418 15.6413C2.08539 15.9835 2.21288 16.3153 2.44863 16.5636C2.68438 16.8118 3.00908 16.9563 3.35134 16.9652L3.38543 16.9666Z" fill="#6366F1"/>
<path d="M5.15083 19.3105C5.10419 19.1458 5.02529 18.9921 4.9187 18.8582C4.81211 18.7243 4.67997 18.6129 4.52995 18.5305C4.37993 18.4481 4.21503 18.3964 4.04484 18.3783C3.87465 18.3602 3.70256 18.3762 3.53858 18.4252C3.37461 18.4742 3.22201 18.5553 3.08967 18.6639C2.95733 18.7724 2.84788 18.9061 2.76769 19.0573C2.6875 19.2085 2.63817 19.3742 2.62257 19.5446C2.60696 19.715 2.62539 19.8869 2.67679 20.0501C2.74566 20.2764 2.81763 20.5022 2.89613 20.7257C2.95241 20.8857 3.03964 21.033 3.15286 21.1593C3.26607 21.2856 3.40305 21.3883 3.55596 21.4616C3.70888 21.535 3.87474 21.5775 4.04408 21.5867C4.21342 21.5959 4.38293 21.5717 4.54291 21.5154C4.70289 21.4592 4.85022 21.3719 4.97649 21.2587C5.10276 21.1455 5.2055 21.0085 5.27883 20.8556C5.35216 20.7027 5.39466 20.5368 5.40389 20.3675C5.41312 20.1982 5.38891 20.0287 5.33264 19.8687C5.26767 19.6836 5.20707 19.4976 5.15083 19.3105Z" fill="#6366F1"/>
</svg>
