<svg width="33" height="32" viewBox="0 0 33 32" fill="none" xmlns="http://www.w3.org/2000/svg">
<g clip-path="url(#clip0_2338_1581)">
<path d="M3.58852 22.5965C4.2946 22.9794 5.09134 23.1588 5.89156 23.1149C6.25266 23.0961 6.61011 23.0327 6.95597 22.9261C7.51008 22.7574 8.02555 22.4793 8.47253 22.108C8.91952 21.7366 9.28913 21.2794 9.55995 20.7627L9.59163 20.6987C11.0766 20.7844 12.5649 20.6057 13.9886 20.1706C19.7225 18.4232 23.5207 12.5314 22.9347 6.37076L23.6221 6.95002C23.9101 7.17706 24.2742 7.28201 24.6374 7.24266C25.0007 7.20331 25.3345 7.02274 25.5682 6.73917C25.802 6.45559 25.9174 6.09126 25.89 5.72325C25.8626 5.35525 25.6946 5.01245 25.4215 4.76739L22.1206 1.99269C21.834 1.75182 21.4645 1.63573 21.0932 1.66994C20.722 1.70414 20.3793 1.88584 20.1406 2.17511L17.3941 5.50666C17.1557 5.79618 17.0408 6.16947 17.0746 6.54452C17.1085 6.91958 17.2883 7.26571 17.5747 7.50688C17.8612 7.74775 18.2307 7.86383 18.602 7.82963C18.9732 7.79542 19.3159 7.61372 19.5546 7.32446L20.1438 6.61078C20.6443 11.4561 17.6887 16.0774 13.1555 17.4535C12.1291 17.7666 11.0592 17.9092 9.98762 17.876C9.87824 17.2582 9.64034 16.6708 9.28962 16.1528C8.9389 15.6347 8.48335 15.1978 7.95307 14.8708C7.42279 14.5438 6.82987 14.3342 6.21347 14.2559C5.59707 14.1775 4.97124 14.2323 4.37732 14.4164C3.54445 14.6729 2.80554 15.173 2.25398 15.8536C1.70243 16.5343 1.36298 17.3648 1.27856 18.2403C1.19414 19.1158 1.36853 19.9969 1.77969 20.7722C2.19084 21.5476 2.82031 22.1824 3.58852 22.5965ZM4.25377 17.9144C4.35293 17.727 4.48804 17.5614 4.65121 17.4274C4.81437 17.2933 5.00234 17.1934 5.20414 17.1335C5.32773 17.0958 5.45536 17.0732 5.58428 17.0663C5.93335 17.0485 6.27845 17.1478 6.56581 17.3489C6.85317 17.5499 7.06664 17.8413 7.17297 18.1776C7.2793 18.514 7.27252 18.8764 7.15367 19.2085C7.03483 19.5406 6.81061 19.8236 6.51594 20.0135C6.22126 20.2034 5.87269 20.2895 5.52453 20.2584C5.17637 20.2273 4.84818 20.0807 4.59108 19.8415C4.33398 19.6023 4.16242 19.2839 4.10313 18.9359C4.04384 18.5879 4.10015 18.2299 4.26328 17.9176L4.25377 17.9144ZM7.27275 9.03664L8.47971 7.81091L7.27275 6.59158C7.02302 6.32358 6.88596 5.96815 6.89044 5.60011C6.89492 5.23207 7.04058 4.88014 7.29677 4.61843C7.55295 4.35672 7.89965 4.20565 8.26389 4.19702C8.62812 4.18839 8.98146 4.32288 9.2495 4.57217L10.4406 5.78829L11.6412 4.55936C11.7692 4.41893 11.9239 4.30599 12.096 4.22727C12.2681 4.14856 12.4542 4.10568 12.6431 4.1012C12.832 4.09673 13.0198 4.13074 13.1954 4.20122C13.371 4.2717 13.5307 4.3772 13.6651 4.51141C13.7994 4.64563 13.9056 4.80581 13.9773 4.9824C14.049 5.15899 14.0848 5.34837 14.0825 5.53923C14.0802 5.73009 14.0398 5.91853 13.9638 6.09328C13.8878 6.26804 13.7777 6.42554 13.6402 6.55638L12.4395 7.78531L13.656 8.99823C13.8175 9.11901 13.9515 9.27334 14.049 9.45082C14.1465 9.62831 14.2052 9.82483 14.2212 10.0272C14.2372 10.2295 14.2101 10.4329 14.1417 10.6238C14.0733 10.8147 13.9653 10.9885 13.8248 11.1337C13.6843 11.2788 13.5147 11.3918 13.3274 11.4652C13.14 11.5385 12.9393 11.5705 12.7387 11.5589C12.5381 11.5473 12.3423 11.4924 12.1645 11.398C11.9867 11.3035 11.8309 11.1716 11.7078 11.0112L10.4913 9.79832L9.29068 11.0272C9.02939 11.2976 8.6725 11.452 8.29852 11.4565C7.92454 11.461 7.56411 11.3152 7.29651 11.0513C7.02892 10.7873 6.87608 10.4267 6.87163 10.0489C6.86717 9.6711 7.01146 9.30698 7.27275 9.03664ZM31.8807 17.2487C32.0198 17.378 32.1316 17.5342 32.2095 17.7081C32.2874 17.882 32.3298 18.07 32.3343 18.2608C32.3387 18.4516 32.305 18.6414 32.2353 18.8188C32.1655 18.9962 32.0611 19.1575 31.9282 19.2933C31.7954 19.429 31.6368 19.5363 31.462 19.6087C31.2872 19.6812 31.0997 19.7173 30.9108 19.715C30.7219 19.7126 30.5354 19.6718 30.3624 19.5951C30.1894 19.5183 30.0335 19.4071 29.904 19.2681L28.6907 18.052L27.4869 19.2809C27.3571 19.4144 27.2023 19.5206 27.0316 19.5931C26.8608 19.6656 26.6775 19.7031 26.4922 19.7034C26.2145 19.7041 25.9427 19.6217 25.7113 19.4666C25.4798 19.3115 25.299 19.0907 25.1916 18.8319C25.0842 18.5731 25.055 18.288 25.1078 18.0126C25.1605 17.7371 25.2928 17.4835 25.488 17.2839L26.6886 16.055L25.4753 14.8517C25.2256 14.5837 25.0885 14.2282 25.093 13.8602C25.0975 13.4921 25.2432 13.1402 25.4993 12.8785C25.7555 12.6168 26.1022 12.4657 26.4665 12.4571C26.8307 12.4485 27.184 12.583 27.4521 12.8322L28.6685 14.0484L29.8692 12.8194C29.9986 12.6863 30.1528 12.5804 30.323 12.5079C30.4932 12.4354 30.676 12.3977 30.8607 12.397C31.1382 12.3969 31.4095 12.4798 31.6404 12.6351C31.8714 12.7904 32.0517 13.0113 32.1587 13.2699C32.2658 13.5286 32.2947 13.8134 32.2418 14.0886C32.189 14.3638 32.0567 14.617 31.8617 14.8165L30.6611 16.0454L31.8807 17.2487ZM20.8946 25.0607L19.694 26.2897L20.9104 27.5026C21.0494 27.6319 21.1612 27.7881 21.2391 27.962C21.3171 28.1359 21.3595 28.3239 21.3639 28.5147C21.3684 28.7055 21.3347 28.8953 21.2649 29.0727C21.1952 29.2501 21.0907 29.4114 20.9579 29.5472C20.825 29.6829 20.6665 29.7902 20.4917 29.8626C20.3169 29.9351 20.1294 29.9712 19.9405 29.9689C19.7516 29.9665 19.565 29.9257 19.3921 29.849C19.2191 29.7722 19.0632 29.661 18.9337 29.522L17.7267 28.3091L16.5229 29.538C16.3931 29.6715 16.2383 29.7776 16.0676 29.8502C15.8968 29.9227 15.7135 29.9602 15.5282 29.9605C15.251 29.9599 14.9802 29.8766 14.7497 29.721C14.5192 29.5654 14.3393 29.3445 14.2327 29.086C14.1261 28.8275 14.0975 28.543 14.1504 28.2681C14.2034 27.9932 14.3355 27.7402 14.5303 27.541L15.731 26.3121L14.505 25.0927C14.2553 24.8247 14.1182 24.4693 14.1227 24.1013C14.1272 23.7332 14.2728 23.3813 14.529 23.1196C14.7852 22.8579 15.1319 22.7068 15.4961 22.6982C15.8604 22.6895 16.2137 22.824 16.4817 23.0733L17.6982 24.2895L18.8988 23.0605C19.0283 22.9274 19.1825 22.8215 19.3527 22.749C19.5229 22.6765 19.7057 22.6388 19.8904 22.6381C20.1688 22.6368 20.4413 22.7189 20.6734 22.8742C20.9055 23.0294 21.0869 23.2507 21.1944 23.5102C21.3019 23.7696 21.3308 24.0554 21.2775 24.3314C21.2241 24.6074 21.0908 24.8613 20.8946 25.0607Z" fill="#6366F1"/>
</g>
<defs>
<clipPath id="clip0_2338_1581">
<rect width="31.6787" height="31.6834" fill="white" transform="translate(0.9375 0.0800781)"/>
</clipPath>
</defs>
</svg>
